<?xml version="1.0" standalone="no"?>
<!DOCTYPE svg PUBLIC "-//W3C//DTD SVG 20010904//EN"
 "http://www.w3.org/TR/2001/REC-SVG-20010904/DTD/svg10.dtd">
<svg version="1.0" xmlns="http://www.w3.org/2000/svg"
 width="512.000000pt" height="512.000000pt" viewBox="0 0 512.000000 512.000000"
 preserveAspectRatio="xMidYMid meet">
<metadata>
Created by potrace 1.14, written by Peter Selinger 2001-2017
</metadata>
<g transform="translate(0.000000,512.000000) scale(0.100000,-0.100000)"
fill="#000000" stroke="none">
<path d="M660 4617 c-90 -30 -146 -66 -207 -129 -58 -62 -96 -132 -118 -215
-22 -84 -21 -3350 1 -3432 44 -165 173 -294 343 -345 49 -14 235 -16 1875 -16
2006 0 1874 -4 1997 61 70 38 157 126 192 195 60 119 57 38 55 1611 l-3 1438
-23 57 c-46 113 -126 206 -221 257 -116 62 -75 59 -1126 60 l-960 1 -230 230
c-171 171 -239 233 -265 240 -22 7 -258 10 -640 9 -592 -1 -606 -1 -670 -22z
m1425 -527 c174 -174 239 -233 265 -240 22 -6 415 -10 1025 -10 l991 0 35 -24
c64 -44 73 -67 77 -201 5 -141 -6 -177 -64 -221 l-37 -29 -1781 -3 c-980 -2
-1799 0 -1822 3 -49 7 -102 47 -120 92 -11 25 -14 111 -14 383 0 373 2 393 50
435 48 43 52 43 620 44 l545 1 230 -230z m883 -1397 c43 -32 62 -65 68 -118 6
-50 4 -53 -330 -722 -352 -703 -359 -715 -430 -728 -99 -19 -181 41 -192 141
-6 48 -1 58 321 704 180 360 339 670 352 689 14 18 40 39 57 47 41 19 120 12
154 -13z m-1207 -159 c68 -39 97 -155 54 -217 -8 -12 -99 -106 -202 -209
l-187 -188 187 -187 c103 -104 194 -199 203 -212 34 -47 22 -142 -23 -190 -46
-50 -148 -60 -202 -22 -14 11 -142 136 -283 278 -247 248 -257 260 -263 305
-4 27 -2 61 4 80 13 39 509 541 562 568 41 22 107 19 150 -6z m1763 1 c11 -8
137 -131 279 -272 261 -261 277 -281 277 -351 0 -13 -7 -39 -15 -57 -15 -30
-493 -516 -541 -549 -11 -8 -41 -17 -66 -20 -103 -12 -189 78 -173 182 7 45
16 56 208 249 l201 203 -202 204 c-111 111 -203 209 -203 217 -1 8 -2 30 -4
49 -5 69 49 148 110 162 34 8 106 -2 129 -17z"/>
</g>
</svg>
